<?xml version="1.0" encoding="UTF-8"?>
<svg width="700pt" height="700pt" version="1.1" viewBox="0 0 700 700" xmlns="http://www.w3.org/2000/svg">
 <g>
  <path d="m315.18 69.891c-96.52 0-175.18 78.578-175.17 175.04 0.007813 96.461 78.668 175.04 175.17 175.04 83.027 0 152.73-58.289 170.65-136.03 1.0625-4.5391 0.26953-9.3164-2.2031-13.27-2.4766-3.9531-6.4258-6.7539-10.973-7.7852-4.5234-1.0234-9.2656-0.21094-13.191 2.2578-3.9219 2.4727-6.707 6.3984-7.7383 10.918-14.32 62.129-69.883 108.9-136.54 108.9-77.609 0-140.16-62.5-140.16-140.03-0.011719-77.527 62.539-140.03 140.16-140.03 37.891 0 67.238 13.668 94.691 38.367 3.4531 3.1328 8.0117 4.7578 12.668 4.5156s9.0234-2.332 12.133-5.8086c3.0938-3.4453 4.6953-7.9766 4.4531-12.602-0.24219-4.625-2.3047-8.9648-5.7422-12.07-32.234-29.004-71.477-47.41-118.2-47.41zm135.12 93.27c-4.1484 2.0195-7.332 5.5977-8.8555 9.9492-1.5234 4.3555-1.2656 9.1367 0.71484 13.301 3.168 6.6016 5.7891 13.496 7.8789 20.539l0.003906 0.003906c1.3281 4.4297 4.3594 8.1523 8.4258 10.355 4.0664 2.1992 8.8398 2.7031 13.273 1.3984 4.4531-1.3047 8.207-4.3203 10.438-8.3906 2.2266-4.0703 2.75-8.8594 1.4492-13.312-2.625-8.8438-5.9844-17.457-9.9453-25.707h-0.003906c-2.0195-4.1797-5.6172-7.3867-10.004-8.9141-4.3828-1.5273-9.1953-1.2461-13.375 0.77734z"/>
  <path d="m443.46 318.82c-4.6562 0.003907-9.1211 1.8672-12.402 5.168-3.2578 3.2812-5.0859 7.7148-5.0859 12.34 0 4.6211 1.8281 9.0547 5.0859 12.336l85.391 85.391c7.8359 7.8398 8.4062 12.121 8.3984 14.082-0.011718 1.9609-1.0586 3.5078-2.1953 4.6484-0.96484 0.96484-2.5977 2.0469-4.6484 2.0664-2.0508 0.023438-6.2969-0.48437-14.082-8.2695l-85.516-85.391-0.003906 0.003906c-3.2812-3.2617-7.7148-5.0898-12.34-5.0898-4.6211 0-9.0586 1.8281-12.336 5.0898-3.2578 3.2773-5.0898 7.7109-5.0898 12.336 0 4.6211 1.832 9.0586 5.0898 12.336l85.387 85.52c12.453 12.453 26.418 18.609 39.27 18.473 12.852-0.14062 22.812-6.0156 29.066-12.273 6.2773-6.2812 12.332-16.328 12.402-29.195 0.066407-12.867-6.2031-26.609-18.602-39.012l-85.391-85.391h0.003906c-3.2812-3.3008-7.7461-5.1641-12.402-5.168z"/>
  <path d="m443.11 336.01 85.711 85.715c20.238 20.238 13.672 36.062 6.25 43.488-7.2188 7.2227-23.297 14.047-43.539-6.1953l-85.715-85.719"/>
 </g>
</svg>
